# 3ds Max Wavefront OBJ Exporter v0.97b - (c)2007 guruware
# 创建的文件:30.05.2014 10:28:11

mtllib IKE140032-3D.mtl

#
# object Box001
#

v  9.0980 1995.0002 314.9998
v  9.0980 1995.0002 -314.9999
v  570.1460 1995.0002 -314.9999
v  570.1460 1995.0002 314.9998
v  9.0980 2015.0002 314.9998
v  570.1460 2015.0002 314.9998
v  570.1460 2015.0002 -314.9999
v  9.0980 2015.0002 -314.9999
# 8 vertices

vn 0.0000 -1.0000 0.0000
vn 0.0000 1.0000 -0.0000
vn 0.0000 0.0000 1.0000
vn 1.0000 0.0000 -0.0000
vn 0.0000 -0.0000 -1.0000
vn -1.0000 0.0000 -0.0000
# 6 vertex normals

vt 0.9408 0.0005 0.0000
vt 0.9408 0.9995 0.0000
vt 0.0654 0.9995 0.0000
vt 0.0654 0.0005 0.0000
vt 0.0592 0.0005 0.0000
vt 0.9346 0.0005 0.0000
vt 0.9346 0.9995 0.0000
vt 0.0592 0.9995 0.0000
vt 0.0592 0.9896 0.0000
vt 0.9346 0.9896 0.0000
vt 0.0005 0.9896 0.0000
vt 0.9995 0.9896 0.0000
vt 0.9995 0.9995 0.0000
vt 0.0005 0.9995 0.0000
vt 0.0654 0.9896 0.0000
vt 0.9408 0.9896 0.0000
# 16 texture coords

g Box001
usemtl _02___Default
s off
f 1/1/1 2/2/1 3/3/1 
f 3/3/1 4/4/1 1/1/1 
f 5/5/2 6/6/2 7/7/2 
f 7/7/2 8/8/2 5/5/2 
f 1/9/3 4/10/3 6/7/3 
f 6/7/3 5/8/3 1/9/3 
f 4/11/4 3/12/4 7/13/4 
f 7/13/4 6/14/4 4/11/4 
f 3/15/5 2/16/5 8/2/5 
f 8/2/5 7/3/5 3/15/5 
f 2/11/6 1/12/6 5/13/6 
f 5/13/6 8/14/6 2/11/6 
# 0 polygons - 12 triangles

#
# object Box004
#

v  9.0980 1410.9492 314.9998
v  9.0980 1410.9492 -314.9999
v  570.1460 1410.9492 -314.9999
v  570.1460 1410.9492 314.9998
v  9.0980 1430.9492 314.9998
v  570.1460 1430.9492 314.9998
v  570.1460 1430.9492 -314.9999
v  9.0980 1430.9492 -314.9999
# 8 vertices

vn 0.0000 -1.0000 0.0000
vn 0.0000 1.0000 -0.0000
vn 0.0000 0.0000 1.0000
vn 1.0000 0.0000 -0.0000
vn 0.0000 -0.0000 -1.0000
vn -1.0000 0.0000 -0.0000
# 6 vertex normals

vt 0.9408 0.0005 0.0000
vt 0.9408 0.9995 0.0000
vt 0.0654 0.9995 0.0000
vt 0.0654 0.0005 0.0000
vt 0.0592 0.0005 0.0000
vt 0.9346 0.0005 0.0000
vt 0.9346 0.9995 0.0000
vt 0.0592 0.9995 0.0000
vt 0.0592 0.7000 0.0000
vt 0.9346 0.7000 0.0000
vt 0.9346 0.7099 0.0000
vt 0.0592 0.7099 0.0000
vt 0.0005 0.7000 0.0000
vt 0.9995 0.7000 0.0000
vt 0.9995 0.7099 0.0000
vt 0.0005 0.7099 0.0000
vt 0.0654 0.7000 0.0000
vt 0.9408 0.7000 0.0000
vt 0.9408 0.7099 0.0000
vt 0.0654 0.7099 0.0000
# 20 texture coords

g Box004
usemtl _02___Default
s off
f 9/17/7 10/18/7 11/19/7 
f 11/19/7 12/20/7 9/17/7 
f 13/21/8 14/22/8 15/23/8 
f 15/23/8 16/24/8 13/21/8 
f 9/25/9 12/26/9 14/27/9 
f 14/27/9 13/28/9 9/25/9 
f 12/29/10 11/30/10 15/31/10 
f 15/31/10 14/32/10 12/29/10 
f 11/33/11 10/34/11 16/35/11 
f 16/35/11 15/36/11 11/33/11 
f 10/29/12 9/30/12 13/31/12 
f 13/31/12 16/32/12 10/29/12 
# 0 polygons - 12 triangles

#
# object Box006
#

v  9.0980 803.1572 314.9998
v  9.0980 803.1572 -314.9999
v  570.1460 803.1572 -314.9999
v  570.1460 803.1572 314.9998
v  9.0980 823.1572 314.9998
v  570.1460 823.1572 314.9998
v  570.1460 823.1572 -314.9999
v  9.0980 823.1572 -314.9999
# 8 vertices

vn 0.0000 -1.0000 0.0000
vn 0.0000 1.0000 -0.0000
vn 0.0000 0.0000 1.0000
vn 1.0000 0.0000 -0.0000
vn 0.0000 -0.0000 -1.0000
vn -1.0000 0.0000 -0.0000
# 6 vertex normals

vt 0.9408 0.0005 0.0000
vt 0.9408 0.9995 0.0000
vt 0.0654 0.9995 0.0000
vt 0.0654 0.0005 0.0000
vt 0.0592 0.0005 0.0000
vt 0.9346 0.0005 0.0000
vt 0.9346 0.9995 0.0000
vt 0.0592 0.9995 0.0000
vt 0.0592 0.3987 0.0000
vt 0.9346 0.3987 0.0000
vt 0.9346 0.4086 0.0000
vt 0.0592 0.4086 0.0000
vt 0.0005 0.3987 0.0000
vt 0.9995 0.3987 0.0000
vt 0.9995 0.4086 0.0000
vt 0.0005 0.4086 0.0000
vt 0.0654 0.3987 0.0000
vt 0.9408 0.3987 0.0000
vt 0.9408 0.4086 0.0000
vt 0.0654 0.4086 0.0000
# 20 texture coords

g Box006
usemtl _02___Default
s off
f 17/37/13 18/38/13 19/39/13 
f 19/39/13 20/40/13 17/37/13 
f 21/41/14 22/42/14 23/43/14 
f 23/43/14 24/44/14 21/41/14 
f 17/45/15 20/46/15 22/47/15 
f 22/47/15 21/48/15 17/45/15 
f 20/49/16 19/50/16 23/51/16 
f 23/51/16 22/52/16 20/49/16 
f 19/53/17 18/54/17 24/55/17 
f 24/55/17 23/56/17 19/53/17 
f 18/49/18 17/50/18 21/51/18 
f 21/51/18 24/52/18 18/49/18 
# 0 polygons - 12 triangles

#
# object Box008
#

v  9.0980 122.7238 314.9998
v  9.0980 122.7238 -314.9999
v  570.1460 122.7238 -314.9999
v  570.1460 122.7238 314.9998
v  9.0980 142.7238 314.9998
v  570.1460 142.7238 314.9998
v  570.1460 142.7238 -314.9999
v  9.0980 142.7238 -314.9999
# 8 vertices

vn 0.0000 -1.0000 0.0000
vn 0.0000 1.0000 -0.0000
vn 0.0000 0.0000 1.0000
vn 1.0000 0.0000 -0.0000
vn 0.0000 -0.0000 -1.0000
vn -1.0000 0.0000 -0.0000
# 6 vertex normals

vt 0.9408 0.0005 0.0000
vt 0.9408 0.9995 0.0000
vt 0.0654 0.9995 0.0000
vt 0.0654 0.0005 0.0000
vt 0.0592 0.0005 0.0000
vt 0.9346 0.0005 0.0000
vt 0.9346 0.9995 0.0000
vt 0.0592 0.9995 0.0000
vt 0.0592 0.0613 0.0000
vt 0.9346 0.0613 0.0000
vt 0.9346 0.0713 0.0000
vt 0.0592 0.0713 0.0000
vt 0.0005 0.0613 0.0000
vt 0.9995 0.0613 0.0000
vt 0.9995 0.0713 0.0000
vt 0.0005 0.0713 0.0000
vt 0.0654 0.0613 0.0000
vt 0.9408 0.0613 0.0000
vt 0.9408 0.0713 0.0000
vt 0.0654 0.0713 0.0000
# 20 texture coords

g Box008
usemtl _02___Default
s off
f 25/57/19 26/58/19 27/59/19 
f 27/59/19 28/60/19 25/57/19 
f 29/61/20 30/62/20 31/63/20 
f 31/63/20 32/64/20 29/61/20 
f 25/65/21 28/66/21 30/67/21 
f 30/67/21 29/68/21 25/65/21 
f 28/69/22 27/70/22 31/71/22 
f 31/71/22 30/72/22 28/69/22 
f 27/73/23 26/74/23 32/75/23 
f 32/75/23 31/76/23 27/73/23 
f 26/69/24 25/70/24 29/71/24 
f 29/71/24 32/72/24 26/69/24 
# 0 polygons - 12 triangles

#
# object Line001
#

v  611.7687 0.0001 -284.9999
v  611.7686 1985.0001 -285.0001
v  554.7687 1985.0001 -285.0001
v  554.7687 0.0001 -284.9999
v  611.7686 1985.0001 284.9999
v  554.7686 1985.0001 284.9999
v  611.7687 0.0001 285.0001
v  554.7687 0.0001 285.0001
v  611.7687 0.0001 315.0001
v  554.7687 0.0001 315.0001
v  611.7686 2015.0001 314.9999
v  554.7686 2015.0001 314.9999
v  611.7686 2015.0001 -315.0001
v  554.7687 2015.0001 -315.0001
v  611.7687 0.0001 -314.9999
v  554.7687 0.0001 -314.9999
# 16 vertices

vn -0.0000 0.0000 1.0000
vn 0.0000 -1.0000 0.0000
vn 0.0000 -0.0000 -1.0000
vn -0.0000 1.0000 -0.0000
vn 1.0000 0.0000 0.0000
vn -1.0000 -0.0000 -0.0000
# 6 vertex normals

vt 0.9995 0.0005 0.0000
vt 0.9995 0.9846 0.0000
vt 0.9106 0.9846 0.0000
vt 0.9106 0.0005 0.0000
vt 0.0005 0.9519 0.0000
vt 0.0005 0.0481 0.0000
vt 0.0894 0.0481 0.0000
vt 0.0894 0.9519 0.0000
vt 0.0005 0.9846 0.0000
vt 0.0005 0.0005 0.0000
vt 0.0894 0.0005 0.0000
vt 0.0894 0.9846 0.0000
vt 0.9995 0.9995 0.0000
vt 0.9106 0.9995 0.0000
vt 0.0005 0.9995 0.0000
vt 0.0894 0.9995 0.0000
vt 0.0481 0.0005 0.0000
vt 0.0481 0.9846 0.0000
vt 0.9519 0.9846 0.0000
vt 0.9519 0.0005 0.0000
# 20 texture coords

g Line001
usemtl _02___Default
s off
f 33/77/25 34/78/25 35/79/25 
f 33/77/25 35/79/25 36/80/25 
f 34/81/26 37/82/26 38/83/26 
f 34/81/26 38/83/26 35/84/26 
f 37/85/27 39/86/27 40/87/27 
f 37/85/27 40/87/27 38/88/27 
f 39/82/26 41/86/26 42/87/26 
f 39/82/26 42/87/26 40/83/26 
f 41/77/25 43/89/25 44/90/25 
f 41/77/25 44/90/25 42/80/25 
f 43/77/28 45/89/28 46/90/28 
f 43/77/28 46/90/28 44/80/28 
f 45/91/27 47/86/27 48/87/27 
f 45/91/27 48/87/27 46/92/27 
f 47/91/26 33/81/26 36/84/26 
f 47/91/26 36/84/26 48/92/26 
f 39/93/29 43/91/29 41/86/29 
f 37/94/29 43/91/29 39/93/29 
f 37/94/29 45/89/29 43/91/29 
f 34/95/29 45/89/29 37/94/29 
f 34/95/29 47/77/29 45/89/29 
f 33/96/29 47/77/29 34/95/29 
f 40/96/30 42/77/30 44/89/30 
f 38/95/30 40/96/30 44/89/30 
f 38/95/30 44/89/30 46/91/30 
f 35/94/30 38/95/30 46/91/30 
f 35/94/30 46/91/30 48/86/30 
f 36/93/30 35/94/30 48/86/30 
# 0 polygons - 28 triangles

#
# object Line002
#

v  28.4959 0.0001 -284.9999
v  28.4958 1985.0001 -285.0001
v  -28.5042 1985.0001 -285.0001
v  -28.5041 0.0001 -284.9999
v  28.4958 1985.0001 284.9999
v  -28.5042 1985.0001 284.9999
v  28.4959 0.0001 285.0001
v  -28.5041 0.0001 285.0001
v  28.4959 0.0001 315.0001
v  -28.5041 0.0001 315.0001
v  28.4958 2015.0001 314.9999
v  -28.5042 2015.0001 314.9999
v  28.4958 2015.0001 -315.0001
v  -28.5042 2015.0001 -315.0001
v  28.4959 0.0001 -314.9999
v  -28.5041 0.0001 -314.9999
# 16 vertices

vn -0.0000 0.0000 1.0000
vn 0.0000 -1.0000 0.0000
vn 0.0000 -0.0000 -1.0000
vn -0.0000 1.0000 -0.0000
vn 1.0000 0.0000 0.0000
vn -1.0000 -0.0000 -0.0000
# 6 vertex normals

vt 0.0894 0.0005 0.0000
vt 0.0894 0.9846 0.0000
vt 0.0005 0.9846 0.0000
vt 0.0005 0.0005 0.0000
vt 0.9106 0.9519 0.0000
vt 0.9106 0.0481 0.0000
vt 0.9995 0.0481 0.0000
vt 0.9995 0.9519 0.0000
vt 0.9106 0.9846 0.0000
vt 0.9106 0.0005 0.0000
vt 0.9995 0.0005 0.0000
vt 0.9995 0.9846 0.0000
vt 0.0894 0.9995 0.0000
vt 0.0005 0.9995 0.0000
vt 0.9106 0.9995 0.0000
vt 0.9995 0.9995 0.0000
vt 0.0481 0.0005 0.0000
vt 0.0481 0.9846 0.0000
vt 0.9519 0.9846 0.0000
vt 0.9519 0.0005 0.0000
# 20 texture coords

g Line002
usemtl _02___Default
s off
f 49/97/31 50/98/31 51/99/31 
f 49/97/31 51/99/31 52/100/31 
f 50/101/32 53/102/32 54/103/32 
f 50/101/32 54/103/32 51/104/32 
f 53/105/33 55/106/33 56/107/33 
f 53/105/33 56/107/33 54/108/33 
f 55/102/32 57/106/32 58/107/32 
f 55/102/32 58/107/32 56/103/32 
f 57/97/31 59/109/31 60/110/31 
f 57/97/31 60/110/31 58/100/31 
f 59/97/34 61/109/34 62/110/34 
f 59/97/34 62/110/34 60/100/34 
f 61/111/33 63/106/33 64/107/33 
f 61/111/33 64/107/33 62/112/33 
f 63/111/32 49/101/32 52/104/32 
f 63/111/32 52/104/32 64/112/32 
f 55/113/35 59/110/35 57/100/35 
f 53/114/35 59/110/35 55/113/35 
f 53/114/35 61/112/35 59/110/35 
f 50/115/35 61/112/35 53/114/35 
f 50/115/35 63/107/35 61/112/35 
f 49/116/35 63/107/35 50/115/35 
f 56/116/36 58/107/36 60/112/36 
f 54/115/36 56/116/36 60/112/36 
f 54/115/36 60/112/36 62/110/36 
f 51/114/36 54/115/36 62/110/36 
f 51/114/36 62/110/36 64/100/36 
f 52/113/36 51/114/36 64/100/36 
# 0 polygons - 28 triangles

