# Alias OBJ Model File
# Exported from SketchUp, (c) 2000-2012 Trimble Navigation Limited
# File units = millimeters

mtllib hand_pinched.mtl

g Mesh1 Group1 Model

usemtl _9
v 210.692 -125.577 -22.4863
vt -8.37025 5.32911
vn 0.618153 0.786058 4.71782e-16
v 157.683 -83.8907 -24.1265
vt -5.71524 5.26454
v 156.825 -83.2165 42.0136
vt -5.67229 7.86848
v 206.947 -122.632 13.2259
vt -8.18268 6.7351
f 1/1/1 2/2/1 3/3/1 4/4/1 

v 109.547 -110.211 -14.5877
vt 5.57172 -4.27277
vn -0.102157 -0.16848 -0.980397
vt 6.65493 -6.17877
vt 9.29043 -5.85103
f 5/5/2 2/6/2 1/7/2

vt 9.89549 2.15005
vn 0.113182 -0.514938 -0.849723
vt 7.82212 2.86235
v 40.1811 -36.2326 -68.6587
vt 5.78009 -1.17532
f 2/8/3 5/9/3 6/10/3

v 95.6471 -110.211 18.2918
vt 4.37984 5.21307
vn -0.604913 -0.754111 -0.25573
vt 0.854017 1.67207
vt 4.80672 3.87407
f 7/11/4 6/12/4 5/13/4

vt 1.06009 1.46368
vn -0.57678 -0.766015 -0.283805
vt 4.5565 5.03372
v 21.8508 -62.4968 39.4832
vt 1.10556 5.90381
f 6/14/5 7/15/5 8/16/5

vt 6.62157 6.28271
vn -0.0964091 -0.524747 0.845781
vt 8.79845 8.03318
vt 3.42458 7.84646
f 7/17/6 3/18/6 8/19/6

v 202.393 -151.3 22.6111
vt 10.0706 7.58551
vn -0.183306 -0.380945 0.906245
vt 7.29177 9.39243
vt 5.58221 7.18326
f 9/20/7 3/21/7 7/22/7

vt -2.89459 -4.30491
vn 0.586249 0.166419 0.792854
vt -1.85778 -4.91123
vt 0.173906 -3.05144
f 9/23/8 4/24/8 3/25/8

v 222.52 -147.411 8.01107
vt -3.35322 -5.61101
vn 0.555059 0.177832 0.81258
vt -2.23711 -5.25876
vt -3.25726 -4.62482
f 10/26/9 4/27/9 9/28/9

vt -4.88953 6.24929
vn 0.850103 0.524613 0.045885
vt -6.04171 6.04377
vt -5.06563 4.84182
f 4/29/10 10/30/10 1/31/10

vt 11.7536 4.09503
vn -0.167673 -0.831215 -0.530063
vt 7.10402 3.04579
vt 11.1271 2.67906
f 10/32/11 5/33/11 1/34/11

vt 10.9722 4.97976
vn -0.185128 -0.855733 -0.483166
vt 7.05744 3.30703
vt 11.7143 4.32324
f 9/35/12 5/36/12 10/37/12

vt 6.47926 4.92915
vn -0.350057 -0.924965 -0.147989
vt 10.4705 6.40998
vt 5.96744 6.23803
f 5/38/13 9/39/13 7/40/13

vt 3.43975 8.06977
vn -0.103145 -0.572587 0.81333
vt 8.81414 8.241
v 90.7113 -37.8012 65.6017
vt 5.93549 9.83719
f 8/41/14 3/42/14 11/43/14

vt 9.33088 -0.814434
vn 0.17618 -0.239433 0.954795
v 152.02 -39.0346 53.9797
vt 10.2094 0.77036
vt 8.29406 2.30959
f 3/44/15 12/45/15 11/46/15

vt 3.60947 8.22415
vn 0.994407 0.104949 0.0118208
vt 1.85978 7.75301
vt 1.82984 5.14888
f 12/47/16 3/48/16 2/49/16

vt -6.65363 7.83466
vn 0.472341 0.778692 -0.412956
vt -1.72526 5.90962
vt -5.54713 11.2111
f 2/50/17 6/51/17 12/52/17

vt 4.8733 3.40926
vn -0.00156565 -0.999769 -0.0214146
v -27.646 -35.0239 -120.133
vt 2.20287 1.38226
v 105.045 -34.4239 -157.846
vt 7.42687 -0.102843
vt 9.27658 8.23865
f 6/53/18 13/54/18 14/55/18 12/56/18 

vt 5.51721 2.5988
vn 0.14266 -0.967087 -0.210693
vt 4.65237 6.95413
vt 2.88239 0.525734
f 6/57/19 8/58/19 13/59/19

v -83.7887 -37.8012 20.4017
vt -0.977806 6.51312
vn -0.208816 -0.972554 -0.102641
vt 1.16033 0.950889
vt 3.29266 7.26835
f 15/60/20 13/61/20 8/62/20

vt -4.65788 6.51683
vn -0.928639 -8.31442e-16 -0.370986
v -27.646 -12.6239 -120.133
vt -5.64911 0.558807
vt -4.76722 0.558807
f 15/63/21 16/64/21 13/65/21

vt -5.86644 1.77854
vn -0.78947 0.575939 -0.212207
vt -3.76296 7.44034
v -47.2446 7.97482 8.68561
vt -6.06684 6.96832
f 16/66/22 15/67/22 17/68/22

vt -1.8475 -1.18593
vn -0.155338 0.35951 0.920121
v 122.751 29.1805 29.0993
vt -10.358 -0.311581
vt -3.88306 -2.36372
f 15/69/23 18/70/23 17/71/23

vt -10.2172 1.14815
vn -0.210481 0.543508 0.812587
vt -1.6821 0.560645
vt -8.08855 3.61384
f 18/72/24 15/73/24 11/74/24

vt -2.84726 6.13217
vn -0.238497 -0.30878 0.920747
vt 1.03859 8.05763
vt 2.58983 10.6932
f 15/75/25 8/76/25 11/77/25

v 171.863 -14.127 60.5469
vt -10.9235 1.36678
vn -0.0959692 0.511313 0.854019
v 189.481 10.8714 47.56
vt -11.7868 0.383966
vt -9.33763 -1.01307
vt -7.61142 1.74931
f 19/78/26 20/79/26 18/80/26 11/81/26 

vt 3.43228 -5.17526
vn 0.492417 0.101996 0.864363
v 224.33 -70.8149 37.3464
vt 0.827898 -6.99165
vt 4.25532 -6.19203
f 19/82/27 21/83/27 20/84/27

vt 2.43467 7.56802
vn -0.748824 -0.656828 -0.0885422
v 197.548 -31.6623 -26.6021
vt 3.62051 4.12343
vt 5.4746 6.65102
f 19/85/28 22/86/28 21/87/28

vt 11.1137 3.26975
vn 0.692798 -0.639692 0.332904
vt 10.9349 6.90836
vt 9.6845 6.63416
f 22/88/29 19/89/29 12/90/29

vt 8.16958 4.92681
vn 0.16559 -0.372661 0.913074
vt 10.3556 3.80477
vt 11.4677 4.4388
f 11/91/30 12/92/30 19/93/30

vt 11.6601 5.13312
vn 0.142081 -0.989802 -0.0102803
vt 9.84454 8.3058
v 180.056 -32.8239 -156.526
vt 10.9719 0.0177544
f 22/94/31 12/95/31 23/96/31

vt 7.53703 -0.123028
vn 0.0217854 -0.999409 -0.0265851
vt 10.4909 -0.071033
vt 9.38205 8.21951
f 14/97/32 23/98/32 12/99/32

v 180.056 -8.52387 -156.526
vt 5.81053 10.3869
vn 0.0175973 -2.31339e-15 -0.999845
vt 4.85384 10.3869
vt 4.79085 7.43323
v 105.045 1.67613 -157.846
vt 6.21211 7.43323
f 24/100/33 23/101/33 14/102/33 25/103/33 

v 252.89 -77.4239 -149.233
vt 3.09793 13.2229
vn 0.0996333 -4.32657e-15 -0.995024
vt 4.85384 10.3411
vt 5.81053 10.3411
v 252.89 -51.1239 -149.233
vt 4.13337 13.2229
f 26/104/34 23/105/34 24/106/34 27/107/34 

vt 6.25947 0.805238
vn -0.526312 -0.846667 0.0784301
vt 9.62177 1.09325
vt 6.82021 5.93614
f 23/108/35 26/109/35 22/110/35

v 291.149 -77.4239 -29.444
vt 11.9357 6.2782
vn -0.431643 -0.891447 0.137863
vt 7.83384 6.39116
vt 10.58 1.51665
f 28/111/36 22/112/36 26/113/36

vt 4.89957 -10.9143
vn 0.0303483 1.49313e-16 0.999539
vt 3.09793 -14.6011
v 291.149 -25.5239 -29.444
vt 5.14124 -14.6011
v 199.606 32.2761 -26.6646
vt 7.41683 -10.9954
f 22/114/37 28/115/37 29/116/37 30/117/37 

vt 5.14124 -14.6038
vn 0.0298686 -1.25177e-17 0.999554
vt 3.09793 -14.6038
v 355.257 -103.138 -31.3597
vt 2.08556 -17.1288
f 29/118/38 28/119/38 31/120/38

v 330.06 -114.098 -38.469
vt 15.0078 7.81845
vn -0.111554 -0.347469 0.931032
vt 15.8204 8.58541
vt 13.1078 8.79208
f 32/121/39 31/122/39 28/123/39

vt 16.4615 5.81464
vn 0.43107 -0.888321 -0.158321
vt 15.3806 5.53117
v 321.627 -102.236 -127.986
vt 15.2858 1.96185
f 31/124/40 32/125/40 33/126/40

v 297.652 -113.139 -135.397
vt 14.1441 1.71786
vn 0.448974 -0.879318 -0.158815
vt 15.18 2.01336
vt 15.2633 5.58297
f 34/127/41 33/128/41 32/129/41

vt 4.13337 12.764
vn 0.295309 -1.21356e-14 -0.955402
vt 2.12107 15.5966
vt 1.69182 14.6086
vt 3.09793 12.764
f 27/130/42 33/131/42 34/132/42 26/133/42 

vt -7.54535 9.51497
vn 0.626257 0.697135 -0.349006
vt -10.4563 5.37503
vt -7.09835 4.48244
f 29/134/43 33/135/43 27/136/43

vt -5.50931 8.58849
vn 0.742896 0.61985 -0.252767
vt -9.47251 8.51054
vt -8.59701 4.57867
f 29/137/44 31/138/44 33/139/44

vt -9.84617 8.78019
vn 0.496752 0.802629 -0.330188
vt -9.09577 3.78389
vt -5.584 8.89612
f 29/140/45 27/141/45 30/142/45

vt -5.72318 3.46319
vn 0.501288 0.801053 -0.327145
vt -5.52355 8.87353
vt -9.04363 3.76703
f 24/143/46 30/144/46 27/145/46

vt -10.0047 7.7105
vn 0.133314 0.939591 -0.315273
vt -9.46833 2.32312
vt -6.488 2.26835
f 30/146/47 24/147/47 25/148/47

vt -8.21166 0.676992
vn -0.135103 0.982042 -0.131687
vt -9.04983 8.10169
vt -12.064 5.88698
f 25/149/48 18/150/48 30/151/48

vt -8.06006 0.72477
vn -0.106694 0.985108 -0.134829
vt -2.12598 7.34154
vt -8.8697 8.15264
f 25/152/49 17/153/49 18/154/49

vt -3.07581 2.39675
vn -0.155573 0.971469 -0.179012
vt -2.44216 7.5516
vt -8.32316 0.887607
f 16/155/50 17/156/50 25/157/50

vt -4.79085 -7.15116
vn -0.27339 -3.91835e-16 -0.961903
vt -4.76722 -1.72021
vt -5.64911 -1.72021
vt -6.21211 -7.15116
f 14/158/51 13/159/51 16/160/51 25/161/51 

vt -9.3627 5.23739
vn 0.176113 0.939171 0.29486
vt -9.59917 2.1792
vt -6.64766 4.47677
f 20/162/52 30/163/52 18/164/52

vt -3.66372 4.20169
vn 0.635851 0.714163 0.292686
v 263.945 -44.6479 21.2586
vt -7.30676 3.11878
vt -3.40106 1.14563
f 20/165/53 35/166/53 30/167/53

vt 5.48607 -7.70775
vn 0.356022 0.0351241 0.933817
vt 2.15091 -8.83174
vt 3.02301 -10.6022
f 20/168/54 21/169/54 35/170/54

v 229.709 -133.881 23.9906
vt 4.64133 -6.66019
vn 0.454144 -0.147339 0.878661
vt 8.39893 -6.88547
vt 6.93771 -5.55888
f 36/171/55 35/172/55 21/173/55

vt 8.59895 -4.52902
vn 0.594423 -0.204248 0.777781
vt 4.83848 -4.35789
v 254.893 -123.846 7.37901
vt 5.53433 -5.39841
f 35/174/56 36/175/56 37/176/56

vt 11.5428 6.68996
vn 0.423274 -0.900734 0.097553
v 253.024 -126.88 -12.53
vt 12.4907 5.24525
vt 12.6081 6.03282
f 36/177/57 38/178/57 37/179/57

vt 13.0311 5.72109
vn 0.287588 -0.957754 6.19807e-18
vt 12.0727 7.15891
v 229.709 -133.881 -25.6386
vt 12.0727 5.20501
f 38/180/58 36/181/58 39/182/58

vt -2.31497 7.68473
vn -0.996382 -0.0849916 1.41001e-17
vt 0.176968 5.20501
vt 0.176968 7.15891
f 21/183/59 39/184/59 36/185/59

vt 0.0233415 5.05023
vn -0.997282 -0.0726083 -0.0124762
vt -2.46841 7.53015
v 224.33 -60.0853 -25.0974
vt -2.88972 5.07154
f 39/186/60 21/187/60 40/188/60

vt 5.61939 3.85008
vn -0.719651 -0.684308 -0.117584
vt 5.92552 6.32567
vt 4.08191 3.79042
f 40/189/61 21/190/61 22/191/61

v 260.501 -41.1078 -22.3543
vt 2.07303 14.4796
vn 0.0691629 0.0123574 -0.997529
vt -1.3093 12.6392
vt 1.58801 12.9425
vt 2.87503 12.0993
f 41/192/62 39/193/62 40/194/62 22/195/62 

vt 4.10703 12.6431
vn 0.51714 -0.14176 -0.84408
vt 7.95007 12.8842
vt 4.61552 13.6055
f 39/196/63 41/197/63 38/198/63

vt 2.41587 6.73214
vn 0.992321 -0.0955035 -0.0785958
vt 5.80541 6.34416
vt 2.54184 7.5184
f 38/199/64 41/200/64 37/201/64

vt 5.71635 8.16298
vn 0.991421 -0.098198 -0.0862634
vt 2.57837 7.61449
vt 5.84168 6.43951
f 35/202/65 37/203/65 41/204/65

vt -5.16608 5.45379
vn 0.769782 0.638244 -0.00898352
vt -1.41179 5.28409
vt -5.35992 7.17091
f 41/205/66 30/206/66 35/207/66

vt 7.92999 11.12
vn 0.0668551 -0.0031268 -0.997758
vt 5.15602 13.6555
vt 5.41169 11.1568
f 30/208/67 41/209/67 22/210/67

vt 7.87125 2.63196
vn -0.64848 -0.732514 0.207119
vt 10.1228 3.18875
vt 8.99907 7.45257
f 26/211/68 34/212/68 28/213/68

vt 11.1604 7.09356
vn -0.644814 -0.735403 0.208318
vt 9.05663 7.45684
vt 10.1762 3.1919
f 32/214/69 28/215/69 34/216/69

